<?xml version="1.0" encoding="UTF-8"?>
<!DOCTYPE svg PUBLIC "-//W3C//DTD SVG 1.1//EN" "http://www.w3.org/Graphics/SVG/1.1/DTD/svg11.dtd">
<svg xmlns="http://www.w3.org/2000/svg" version="1.1" width="512px" height="512px" style="shape-rendering:geometricPrecision; text-rendering:geometricPrecision; image-rendering:optimizeQuality; fill-rule:evenodd; clip-rule:evenodd" xmlns:xlink="http://www.w3.org/1999/xlink">
<g><path style="opacity:0.969" fill="#030303" d="M 511.5,376.5 C 511.5,384.167 511.5,391.833 511.5,399.5C 511.031,402.981 509.031,405.315 505.5,406.5C 502.322,418.353 495.989,428.186 486.5,436C 482.796,438.158 479.463,437.658 476.5,434.5C 475.855,431.772 475.021,429.105 474,426.5C 468.117,420.733 464.95,413.733 464.5,405.5C 461.039,405.854 458.539,404.521 457,401.5C 456.71,393.598 455.876,385.765 454.5,378C 455.149,374.125 455.982,370.291 457,366.5C 459.226,362.961 461.393,359.461 463.5,356C 462.388,344.856 462.221,333.69 463,322.5C 465.667,301.832 468.334,281.166 471,260.5C 471.667,254.5 471.667,248.5 471,242.5C 470.434,238.035 468.767,234.035 466,230.5C 468.845,257.879 466.511,284.879 459,311.5C 454.924,324.728 450.258,337.728 445,350.5C 446.66,364.128 447.993,377.795 449,391.5C 443.068,415.06 436.902,438.56 430.5,462C 433.737,470.007 434.237,478.174 432,486.5C 430.833,490.333 428.333,492.833 424.5,494C 409.667,494.167 394.833,494.333 380,494.5C 364.411,494.652 348.911,494.152 333.5,493C 327.753,487.578 326.919,481.412 331,474.5C 335.667,463.167 343.667,455.167 355,450.5C 361.127,438.618 365.293,426.285 367.5,413.5C 365.362,414.429 364.196,416.096 364,418.5C 361.315,422.019 358.315,422.352 355,419.5C 354.163,417.649 353.329,415.816 352.5,414C 347.898,413.224 343.398,412.058 339,410.5C 336.952,412.053 334.785,413.386 332.5,414.5C 326.551,412.767 325.217,409.267 328.5,404C 324,400.833 320.167,397 317,392.5C 309.81,394.644 307.143,391.978 309,384.5C 310.255,383.789 311.421,382.956 312.5,382C 311.331,379.993 310.665,377.827 310.5,375.5C 285.833,379.461 261.166,379.461 236.5,375.5C 235.558,375.608 234.725,375.941 234,376.5C 232.52,390.786 228.187,404.119 221,416.5C 217.69,427.603 216.356,438.937 217,450.5C 218.955,459.6 220.788,468.767 222.5,478C 222.826,483.754 221.159,488.754 217.5,493C 187.919,494.65 158.253,494.984 128.5,494C 125.016,492.044 123.016,489.044 122.5,485C 124.445,472.613 130.945,463.446 142,457.5C 145.334,425.024 143.501,392.857 136.5,361C 131.092,355.592 125.592,350.092 120,344.5C 109.08,330.082 103.08,313.749 102,295.5C 100.514,281.181 99.1806,266.848 98,252.5C 88.6201,247.09 82.6201,239.09 80,228.5C 55.6864,220.394 45.5197,203.56 49.5,178C 34.9564,157.275 32.2897,135.108 41.5,111.5C 26.1903,106.774 14.6903,97.4407 7,83.5C 3.86652,76.2596 1.36652,68.9263 -0.5,61.5C -0.5,57.1667 -0.5,52.8333 -0.5,48.5C 2.2731,43.5014 6.60643,41.0014 12.5,41C 17.1667,40.3333 21.8333,40.3333 26.5,41C 31.5725,42.0187 36.5725,43.1854 41.5,44.5C 42.4719,35.059 45.8052,26.559 51.5,19C 58.3624,15.1281 64.529,15.9614 70,21.5C 73.6429,38.1242 82.3096,51.4575 96,61.5C 113.41,54.3659 130.576,54.8659 147.5,63C 161.479,62.9936 174.145,66.9936 185.5,75C 189.715,78.7216 194.048,82.2216 198.5,85.5C 206.574,83.7533 214.24,80.92 221.5,77C 227.811,72.686 233.478,67.686 238.5,62C 250.771,59.2607 256.771,64.2607 256.5,77C 256.418,83.3264 255.418,89.4931 253.5,95.5C 266.573,96.9541 277.74,102.287 287,111.5C 288.25,114.077 288.584,116.743 288,119.5C 279.573,135.928 266.739,147.428 249.5,154C 240.501,156.855 231.501,157.022 222.5,154.5C 222.015,160.59 221.015,166.59 219.5,172.5C 241.695,181.218 264.695,184.385 288.5,182C 315.825,178.927 343.159,175.927 370.5,173C 390.057,170.252 409.39,171.252 428.5,176C 436.671,178.918 443.671,183.585 449.5,190C 480.496,193.542 497.663,210.709 501,241.5C 501.665,250.532 501.332,259.532 500,268.5C 496.504,286.814 493.171,305.147 490,323.5C 489.182,333.596 489.849,343.596 492,353.5C 501.997,358.321 508.497,365.987 511.5,376.5 Z"/></g>
<g><path style="opacity:1" fill="#efd6c9" d="M 58.5,26.5 C 60.0174,26.5106 61.1841,27.1772 62,28.5C 63.057,36.9442 66.057,44.6109 71,51.5C 75.3149,56.6492 79.8149,61.6492 84.5,66.5C 80.4016,69.2977 76.2349,71.9643 72,74.5C 70.51,73.6831 69.01,72.8498 67.5,72C 61.5901,66.7608 56.4234,60.9275 52,54.5C 50.5577,44.3273 52.7244,34.994 58.5,26.5 Z"/></g>
<g><path style="opacity:1" fill="#d8d9da" d="M 24.5,52.5 C 36.4785,53.2279 45.3118,59.2279 51,70.5C 54.8666,74.7016 59.0332,78.5349 63.5,82C 61.4948,84.0618 59.1615,85.0618 56.5,85C 50.9036,79.4069 46.0703,73.2402 42,66.5C 37.1572,60.4794 31.3238,55.8127 24.5,52.5 Z"/></g>
<g><path style="opacity:1" fill="#f37d7d" d="M 10.5,57.5 C 24.7948,61.9537 35.2948,70.9537 42,84.5C 45.1884,87.6884 48.3551,90.8551 51.5,94C 49.1853,100.568 44.852,102.235 38.5,99C 27.3333,94.5 19.5,86.6667 15,75.5C 12.5662,69.7053 11.0662,63.7053 10.5,57.5 Z"/></g>
<g><path style="opacity:1" fill="#e0e1e2" d="M 114.5,66.5 C 125.826,66.1647 136.493,68.6647 146.5,74C 164.116,73.5581 178.616,80.0581 190,93.5C 208.873,115.771 215.207,141.104 209,169.5C 204.614,181.55 196.947,190.884 186,197.5C 179.692,169.928 162.525,158.095 134.5,162C 131.376,163.314 128.209,164.48 125,165.5C 122.931,164.73 121.265,163.397 120,161.5C 121.891,155.336 123.558,149.003 125,142.5C 128.771,116.205 118.937,97.0387 95.5,85C 90.2392,83.6145 84.9059,82.6145 79.5,82C 90.2897,74.5998 101.956,69.4332 114.5,66.5 Z"/></g>
<g><path style="opacity:1" fill="#efd7ca" d="M 242.5,71.5 C 243.5,71.5 244.5,71.5 245.5,71.5C 246.557,80.6533 245.057,89.3199 241,97.5C 232.219,104.371 222.386,107.704 211.5,107.5C 209.167,103.5 206.833,99.5 204.5,95.5C 213.653,92.7283 222.319,88.895 230.5,84C 235.377,80.6239 239.377,76.4572 242.5,71.5 Z"/></g>
<g><path style="opacity:1" fill="#51555a" d="M 72.5,92.5 C 94.9372,90.8007 109.104,100.801 115,122.5C 115.822,130.555 115.488,138.555 114,146.5C 113.381,149.032 112.381,151.365 111,153.5C 89.0003,142.171 70.3336,146.171 55,165.5C 44.4868,147.962 43.8201,129.962 53,111.5C 56.0624,105.77 59.8957,100.603 64.5,96C 67.3093,94.9066 69.976,93.7399 72.5,92.5 Z"/></g>
<g><path style="opacity:1" fill="#d6d7d8" d="M 246.5,107.5 C 253.042,106.989 259.376,107.822 265.5,110C 252.362,110.568 240.362,114.568 229.5,122C 225.875,123.669 222.209,124.169 218.5,123.5C 217.926,121.941 217.26,120.441 216.5,119C 227.108,116.52 237.108,112.687 246.5,107.5 Z"/></g>
<g><path style="opacity:1" fill="#030303" d="M 82.5,114.5 C 94.0381,112.925 101.038,117.759 103.5,129C 104.056,135.112 101.389,137.778 95.5,137C 95,136.5 94.5,136 94,135.5C 95.1954,127.703 92.0287,124.203 84.5,125C 82.8333,127.333 81.1667,129.667 79.5,132C 72.9473,132.763 70.7806,129.93 73,123.5C 75.4057,119.592 78.5724,116.592 82.5,114.5 Z"/></g>
<g><path style="opacity:1" fill="#f37c7c" d="M 256.5,120.5 C 262.5,120.5 268.5,120.5 274.5,120.5C 263.117,140.187 246.117,148.021 223.5,144C 221.656,141.196 220.989,138.03 221.5,134.5C 225.57,133.644 229.57,132.477 233.5,131C 240.775,126.358 248.441,122.858 256.5,120.5 Z"/></g>
<g><path style="opacity:1" fill="#0a0a0b" d="M 167.5,135.5 C 179.589,133.458 186.922,138.292 189.5,150C 189.236,156.614 186.069,158.78 180,156.5C 181.195,148.703 178.029,145.203 170.5,146C 168.959,147.579 167.792,149.413 167,151.5C 163.949,154.374 161.282,154.041 159,150.5C 158.245,147.697 158.578,145.03 160,142.5C 162.396,139.933 164.896,137.6 167.5,135.5 Z"/></g>
<g><path style="opacity:1" fill="#f67e7e" d="M 84.5,157.5 C 94.2721,157.035 102.939,159.869 110.5,166C 117.402,176.409 126.402,178.409 137.5,172C 156.695,169.339 169.195,177.173 175,195.5C 175.488,221.012 162.988,232.845 137.5,231C 129.36,227.934 122.693,222.934 117.5,216C 114.119,213.755 110.452,213.088 106.5,214C 83.7486,223.865 67.9153,217.365 59,194.5C 57.6111,175.26 66.1111,162.927 84.5,157.5 Z"/></g>
<g><path style="opacity:1" fill="#0a0404" d="M 85.5,170.5 C 99.8107,169.784 105.144,176.117 101.5,189.5C 99.5675,190.52 97.5675,190.687 95.5,190C 93.9799,187.404 93.1466,184.571 93,181.5C 86.6088,180.411 85.1088,182.744 88.5,188.5C 87.2624,193.183 84.4291,194.517 80,192.5C 74.4051,183.345 76.2384,176.012 85.5,170.5 Z"/></g>
<g><path style="opacity:1" fill="#e1e2e3" d="M 372.5,193.5 C 373.479,190.375 373.813,187.042 373.5,183.5C 376.059,183.802 378.393,183.468 380.5,182.5C 390.839,182.334 401.172,182.5 411.5,183C 435.468,186.134 449.468,199.634 453.5,223.5C 442.926,225.238 434.926,230.738 429.5,240C 400.496,245.668 387.662,263.168 391,292.5C 395.907,307.74 405.907,318.074 421,323.5C 422.18,327.217 423.513,330.884 425,334.5C 428.423,338.118 431.923,341.618 435.5,345C 434.51,356.255 435.344,367.421 438,378.5C 438.667,383.5 438.667,388.5 438,393.5C 432.164,414.844 426.331,436.177 420.5,457.5C 411.739,458.782 403.739,456.949 396.5,452C 404.286,433.474 409.953,414.308 413.5,394.5C 413.308,392.423 412.808,390.423 412,388.5C 405.052,382.224 398.052,375.89 391,369.5C 386.91,364.327 383.577,358.66 381,352.5C 378.202,348.934 374.535,346.934 370,346.5C 338.551,360.023 305.717,367.357 271.5,368.5C 257.072,367.961 242.739,366.794 228.5,365C 226.622,366.543 225.122,368.376 224,370.5C 223.439,377.972 222.106,385.306 220,392.5C 216.942,400.283 213.608,407.95 210,415.5C 206.784,429.969 205.618,444.636 206.5,459.5C 198.607,460.057 190.94,459.057 183.5,456.5C 183.167,455.833 182.833,455.167 182.5,454.5C 183.644,434.191 183.81,413.858 183,393.5C 182.298,384.953 180.632,376.62 178,368.5C 177.044,367.421 176.211,366.255 175.5,365C 161.782,361.14 149.116,355.14 137.5,347C 128.539,339.557 122.206,330.391 118.5,319.5C 139.335,318.33 153.502,307.997 161,288.5C 162.536,281.11 164.202,273.777 166,266.5C 167.141,264.391 168.641,262.558 170.5,261C 185.2,253.652 192.367,241.819 192,225.5C 190.487,221.319 188.154,217.652 185,214.5C 184.202,212.741 184.369,211.074 185.5,209.5C 198.421,203.244 208.421,193.911 215.5,181.5C 224.737,185.913 234.404,188.913 244.5,190.5C 244.501,217.372 257.501,233.872 283.5,240C 292.801,259.322 307.468,265.322 327.5,258C 337.483,251.205 342.65,241.705 343,229.5C 344.167,228.333 345.333,227.167 346.5,226C 361.712,220.411 370.379,209.577 372.5,193.5 Z"/></g>
<g><path style="opacity:1" fill="#0c0605" d="M 140.5,184.5 C 153.61,182.78 159.777,188.447 159,201.5C 156.951,206.931 153.118,209.431 147.5,209C 144.913,207.475 144.08,205.308 145,202.5C 147.178,201.353 148.678,199.687 149.5,197.5C 149.02,194.508 147.353,193.341 144.5,194C 143.13,195.441 142.13,197.108 141.5,199C 137.649,201.497 134.816,200.663 133,196.5C 133.209,191.114 135.709,187.114 140.5,184.5 Z"/></g>
<g><path style="opacity:1" fill="#51555a" d="M 356.5,184.5 C 358.833,184.5 361.167,184.5 363.5,184.5C 364.056,196.372 359.722,205.872 350.5,213C 342.473,215.375 336.639,220.208 333,227.5C 332.725,244.446 324.225,252.28 307.5,251C 305.004,249.92 302.67,248.586 300.5,247C 297.322,241.645 293.655,236.645 289.5,232C 279.49,229.745 270.657,225.245 263,218.5C 256.869,210.939 254.035,202.272 254.5,192.5C 265.14,193.57 275.807,193.737 286.5,193C 310.038,190.627 333.371,187.794 356.5,184.5 Z"/></g>
<g><path style="opacity:1" fill="#727373" d="M 380.5,182.5 C 378.393,183.468 376.059,183.802 373.5,183.5C 373.813,187.042 373.479,190.375 372.5,193.5C 372.5,189.833 372.5,186.167 372.5,182.5C 375.167,182.5 377.833,182.5 380.5,182.5 Z"/></g>
<g><path style="opacity:1" fill="#d8d9da" d="M 457.5,202.5 C 475.31,207.144 486.144,218.477 490,236.5C 490.667,246.167 490.667,255.833 490,265.5C 486.557,282.492 483.224,299.492 480,316.5C 479.333,326.833 479.333,337.167 480,347.5C 480.843,352.921 482.009,358.254 483.5,363.5C 481.922,367.476 479.589,368.143 476.5,365.5C 472.195,349.05 471.362,332.384 474,315.5C 475.721,302.452 477.721,289.452 480,276.5C 481.293,263.52 481.626,250.52 481,237.5C 478.289,226.965 472.122,219.299 462.5,214.5C 460.826,210.487 459.159,206.487 457.5,202.5 Z"/></g>
<g><path style="opacity:1" fill="#e75753" d="M 107.5,224.5 C 111.377,224.231 113.544,225.898 114,229.5C 110.047,230.959 106.547,230.126 103.5,227C 105.066,226.392 106.4,225.558 107.5,224.5 Z"/></g>
<g><path style="opacity:1" fill="#51555a" d="M 179.5,223.5 C 183.371,229.081 183.204,234.747 179,240.5C 177.542,242.96 175.709,245.127 173.5,247C 159.037,254.746 151.87,266.913 152,283.5C 147.42,299.084 137.087,307.751 121,309.5C 118.698,309.4 116.698,308.733 115,307.5C 112.111,289.941 110.277,272.274 109.5,254.5C 119.297,253.768 127.297,249.601 133.5,242C 152.74,245.096 168.073,238.929 179.5,223.5 Z"/></g>
<g><path style="opacity:1" fill="#cecfd0" d="M 92.5,229.5 C 95.3583,233.52 99.025,236.686 103.5,239C 107.833,239.667 112.167,239.667 116.5,239C 118.844,237.972 121.177,237.306 123.5,237C 117.959,242.624 111.292,244.624 103.5,243C 97.4077,240.414 93.741,235.914 92.5,229.5 Z"/></g>
<g><path style="opacity:1" fill="#51555a" d="M 450.5,233.5 C 452.167,233.5 453.833,233.5 455.5,233.5C 458.647,268.616 453.147,302.282 439,334.5C 436.667,332.833 434.667,330.833 433,328.5C 432.209,322.75 429.709,317.917 425.5,314C 405.932,307.361 397.766,293.861 401,273.5C 403.197,266.297 407.364,260.463 413.5,256C 420.155,252.668 427.155,250.334 434.5,249C 438.062,245.942 441.062,242.442 443.5,238.5C 445.724,236.566 448.058,234.899 450.5,233.5 Z"/></g>
<g><path style="opacity:1" fill="#050505" d="M 251.5,264.5 C 259.298,263.783 266.631,265.283 273.5,269C 278.167,274 282.833,279 287.5,284C 294.707,286.07 301.707,288.737 308.5,292C 324.781,304.721 328.614,320.554 320,339.5C 310.988,353.406 298.154,359.239 281.5,357C 275.104,355.303 269.438,352.303 264.5,348C 243.177,348.175 231.51,337.675 229.5,316.5C 229.92,311.409 231.253,306.576 233.5,302C 228.935,284.3 234.935,271.8 251.5,264.5 Z"/></g>
<g><path style="opacity:1" fill="#51555a" d="M 253.5,274.5 C 258.382,274.193 263.049,275.026 267.5,277C 271.167,281.333 274.833,285.667 278.5,290C 281.167,291.667 283.833,293.333 286.5,295C 303.232,296.236 312.565,305.069 314.5,321.5C 313.685,334.646 307.018,343.146 294.5,347C 284.594,348.381 275.927,345.714 268.5,339C 242.67,338.32 234.337,325.986 243.5,302C 238.609,289.648 241.942,280.481 253.5,274.5 Z"/></g>
<g><path style="opacity:1" fill="#fa5e59" d="M 367.5,357.5 C 369.288,357.215 370.955,357.548 372.5,358.5C 376.996,369.181 383.663,378.181 392.5,385.5C 378.587,404.186 360.92,408.686 339.5,399C 329.493,392.823 323.16,383.989 320.5,372.5C 336.961,369.678 352.628,364.678 367.5,357.5 Z"/></g>
<g><path style="opacity:1" fill="#e0e1e2" d="M 148.5,365.5 C 154.955,368.486 161.622,370.986 168.5,373C 171.019,381.95 172.519,391.117 173,400.5C 173.782,419.52 173.449,438.52 172,457.5C 169.503,459.478 166.669,459.978 163.5,459C 160.204,458.543 157.037,457.709 154,456.5C 155.964,425.919 154.131,395.585 148.5,365.5 Z"/></g>
<g><path style="opacity:1" fill="#505459" d="M 492.5,367.5 C 496.379,369.206 498.879,372.206 500,376.5C 501.317,382.757 501.817,389.091 501.5,395.5C 498.675,395.081 496.509,396.081 495,398.5C 494.872,408.073 491.372,416.073 484.5,422.5C 481.472,418.639 478.639,414.639 476,410.5C 474.855,405.917 474.189,401.251 474,396.5C 472.285,393.603 469.785,392.269 466.5,392.5C 466.559,387.31 466.225,382.143 465.5,377C 465.494,374.7 465.994,372.534 467,370.5C 472.597,377.801 479.431,379.301 487.5,375C 490.2,373.143 491.866,370.643 492.5,367.5 Z"/></g>
<g><path style="opacity:1" fill="#dddedf" d="M 400.5,391.5 C 401.993,392.312 402.66,393.645 402.5,395.5C 399.165,414.174 393.665,432.174 386,449.5C 380.477,455.615 373.977,456.948 366.5,453.5C 371.439,439.184 376.272,424.85 381,410.5C 382.864,413.207 385.364,414.041 388.5,413C 389.944,411.874 390.61,410.374 390.5,408.5C 390.096,406.776 389.929,405.109 390,403.5C 394.082,399.924 397.582,395.924 400.5,391.5 Z"/></g>
<g><path style="opacity:1" fill="#505459" d="M 358.5,460.5 C 361.423,461.295 364.09,462.628 366.5,464.5C 362.453,470.259 359.787,476.593 358.5,483.5C 352.132,483.83 345.798,483.496 339.5,482.5C 342.329,472.013 348.662,464.68 358.5,460.5 Z"/></g>
<g><path style="opacity:1" fill="#51555a" d="M 388.5,460.5 C 398.868,465.733 409.868,468.733 421.5,469.5C 422.833,473.833 422.833,478.167 421.5,482.5C 404.179,483.5 386.846,483.833 369.5,483.5C 371.834,472.502 378.168,464.835 388.5,460.5 Z"/></g>
<g><path style="opacity:1" fill="#505459" d="M 148.5,465.5 C 152.176,466.239 155.51,467.572 158.5,469.5C 155.99,473.525 154.157,477.858 153,482.5C 146.924,483.476 140.758,483.81 134.5,483.5C 134.784,480.148 135.95,477.148 138,474.5C 141.292,471.127 144.792,468.127 148.5,465.5 Z"/></g>
<g><path style="opacity:1" fill="#51555a" d="M 178.5,465.5 C 188.873,468.7 199.54,470.367 210.5,470.5C 211.439,474.765 211.772,479.098 211.5,483.5C 195.497,483.667 179.497,483.5 163.5,483C 166.555,475.449 171.555,469.616 178.5,465.5 Z"/></g>
</svg>
